<svg xmlns="http://www.w3.org/2000/svg" viewBox="0 0 1200 220">
  <g fill="#0B0B0B">
    <!-- N -->
    <path d="M40 180V40h30l110 120V40h30v140h-30L70 70v110z"/>

    <!-- Ø -->
    <path d="M300 40c-46 0-80 34-80 70s34 70 80 70 80-34 80-70-34-70-80-70zm0 30c30 0 50 22 50 40s-20 40-50 40-50-22-50-40 20-40 50-40z"/>
    <path d="M252 170l96-120h20l-96 120z"/>

    <!-- V -->
    <path d="M430 40l60 140h28l60-140h-32l-42 100-42-100z"/>

    <!-- Á -->
    <path d="M640 40l-60 140h30l14-34h64l14 34h30l-60-140zm-6 78l22-52 22 52z"/>
    <path d="M650 10h34l-22 20h-26z"/>

    <!-- R -->
    <path d="M770 180V40h64c34 0 54 18 54 44 0 22-12 36-32 42l36 54h-34l-32-48h-26v48zm30-76h32c16 0 26-8 26-20s-10-20-26-20h-32z"/>

    <!-- E -->
    <path d="M940 180V40h110v26h-80v32h74v26h-74v30h84v26z"/>
  </g>
</svg>
